# xmcd
#
# Track frame offsets:
#	150
#	10205
#	20317
#	30371
#	39763
#	52140
#	63646
#	72605
#	85009
#	95585
#	107348
#	116341
#	125856
#	138399
#	148869
#	160308
#	172517
#	181041
#	193000
#	202343
#	214643
#	226254
#	236434
#	249655
#
# Disc length: 3521 seconds
#
# Revision: 2
# Processed by: cddbd v1.5.2PL0 Copyright (c) Steve Scherf et al.
# Submitted via: audiograbber 1.83.01
#
DISCID=490dbf18
DTITLE=Skeeter Davis - The End Of The World - Country Hits - 1958-1972
DYEAR=1900
DGENRE=Oldies
TTITLE0=Lost To A Geisha Girl
TTITLE1=Set Him Free
TTITLE2=Homebreaker
TTITLE3=Am I That Easy To Forget ?
TTITLE4=(I Can't Help You) I'm Falling Too
TTITLE5=My Last Date (With You)
TTITLE6=Optimistic
TTITLE7=Where I Ought To Be
TTITLE8=The Little Music Box
TTITLE9=The End Of The World
TTITLE10=I'm Saving My Love
TTITLE11=I Can't Stay Mad At You
TTITLE12=He Says The Same Things To Me
TTITLE13=Gonna Get Along Without You Now
TTITLE14=Let Me Get Close To You
TTITLE15=What Am I Gonna Do With You
TTITLE16=Skeeter Davis and Bobby Bare_A Dear John Letter  
TTITLE17=Sunglasses
TTITLE18=Goin' Down The Road (Feelin' Bad)
TTITLE19=Fuel To The Flame
TTITLE20=What Does It Take (To Keep A Man Like You Satisfied)
TTITLE21=I'm A Lover (Not A Fighter)
TTITLE22=Bus Fare To Kentucky
TTITLE23=One Tin Soldier
EXTD=
EXTT0=
EXTT1=
EXTT2=
EXTT3=
EXTT4=
EXTT5=
EXTT6=
EXTT7=
EXTT8=
EXTT9=
EXTT10=
EXTT11=
EXTT12=
EXTT13=
EXTT14=
EXTT15=
EXTT16=
EXTT17=
EXTT18=
EXTT19=
EXTT20=
EXTT21=
EXTT22=
EXTT23=
PLAYORDER=
